<?xml version="1.0" encoding="UTF-8"?>
<!-- Generator: Adobe Illustrator 16.0.0, SVG Export Plug-In . SVG Version: 6.00 Build 0)  -->
<!DOCTYPE svg PUBLIC "-//W3C//DTD SVG 1.1//EN" "http://www.w3.org/Graphics/SVG/1.1/DTD/svg11.dtd">
<svg version="1.1" id="Calque_1" xmlns="http://www.w3.org/2000/svg" xmlns:xlink="http://www.w3.org/1999/xlink" x="0px" y="0px" width="39.443px" height="59.166px" viewBox="0 0 39.443 59.166" enable-background="new 0 0 39.443 59.166" xml:space="preserve">
<g>
	<path fill="#000000" d="M0.901,57.075V56.28h0.246v-1.445H0.896v-0.819h1.398v2.265h0.251v0.795H0.901z M1.714,53.793   c-0.179,0-0.329-0.056-0.447-0.167c-0.119-0.111-0.179-0.252-0.179-0.424c0-0.168,0.06-0.307,0.179-0.415   c0.119-0.109,0.268-0.164,0.447-0.164c0.18,0,0.329,0.055,0.448,0.164c0.119,0.108,0.178,0.247,0.178,0.415   c0,0.172-0.06,0.312-0.178,0.424C2.043,53.738,1.894,53.793,1.714,53.793z"/>
	<path fill="#000000" d="M2.797,57.075V56.28h0.246v-1.445H2.791v-0.819h1.404v0.51c0.039-0.078,0.088-0.153,0.149-0.226   s0.131-0.136,0.211-0.19c0.08-0.055,0.171-0.098,0.274-0.132c0.104-0.032,0.22-0.049,0.348-0.049c0.281,0,0.512,0.092,0.693,0.277   c0.182,0.186,0.272,0.469,0.272,0.852v1.223h0.246v0.795H4.739V56.28H4.99v-0.976c0-0.306-0.121-0.458-0.363-0.458   c-0.132,0-0.238,0.042-0.316,0.126c-0.078,0.085-0.117,0.217-0.117,0.396v0.911h0.257v0.795H2.797z"/>
	<path fill="#000000" d="M8.29,57.151c-0.141,0-0.259-0.014-0.357-0.041s-0.178-0.06-0.243-0.097s-0.115-0.076-0.152-0.119   C7.5,56.85,7.472,56.811,7.453,56.777v0.298h-0.79v-1.018h0.813c0.007,0.113,0.055,0.211,0.143,0.293   c0.088,0.081,0.208,0.122,0.36,0.122c0.125,0,0.217-0.023,0.278-0.07c0.06-0.047,0.091-0.11,0.091-0.192   c0-0.09-0.04-0.152-0.12-0.188s-0.217-0.064-0.413-0.088c-0.417-0.051-0.714-0.161-0.892-0.333   c-0.177-0.172-0.266-0.401-0.266-0.69c0-0.301,0.098-0.538,0.292-0.714s0.464-0.264,0.807-0.264c0.133,0,0.247,0.012,0.342,0.032   c0.096,0.021,0.175,0.05,0.237,0.085c0.062,0.035,0.113,0.074,0.152,0.117s0.07,0.088,0.094,0.135v-0.287h0.754v0.931h-0.79   c-0.031-0.113-0.093-0.202-0.185-0.267c-0.091-0.064-0.202-0.096-0.33-0.096c-0.094,0-0.169,0.02-0.226,0.058   c-0.057,0.039-0.085,0.098-0.085,0.176s0.034,0.135,0.103,0.169c0.068,0.036,0.188,0.065,0.36,0.088   c0.433,0.047,0.753,0.146,0.962,0.299c0.208,0.152,0.313,0.396,0.313,0.731c0,0.343-0.104,0.604-0.313,0.78   C8.938,57.062,8.652,57.151,8.29,57.151z"/>
	<path fill="#000000" d="M9.74,57.075V56.28h0.246v-1.445H9.734v-0.819h1.398v2.265h0.251v0.795H9.74z M10.553,53.793   c-0.179,0-0.329-0.056-0.447-0.167c-0.119-0.111-0.179-0.252-0.179-0.424c0-0.168,0.06-0.307,0.179-0.415   c0.119-0.109,0.268-0.164,0.447-0.164s0.329,0.055,0.447,0.164c0.119,0.108,0.179,0.247,0.179,0.415   c0,0.172-0.06,0.312-0.179,0.424C10.882,53.738,10.732,53.793,10.553,53.793z"/>
	<path fill="#000000" d="M13.279,58.209c-0.519,0-0.907-0.1-1.164-0.301c-0.258-0.201-0.406-0.484-0.445-0.852h1.105   c0.02,0.09,0.064,0.172,0.135,0.246c0.07,0.073,0.193,0.111,0.369,0.111c0.218,0,0.37-0.058,0.456-0.17   c0.086-0.113,0.129-0.251,0.129-0.415v-0.475c-0.074,0.148-0.189,0.272-0.345,0.372c-0.156,0.099-0.351,0.149-0.585,0.149   c-0.176,0-0.34-0.031-0.495-0.095c-0.154-0.062-0.289-0.153-0.403-0.274c-0.115-0.121-0.207-0.27-0.275-0.447   c-0.068-0.178-0.103-0.383-0.103-0.617v-0.047c0-0.23,0.033-0.436,0.1-0.617c0.066-0.181,0.158-0.335,0.275-0.462   s0.252-0.224,0.406-0.29c0.154-0.066,0.319-0.099,0.495-0.099c0.242,0,0.436,0.046,0.582,0.137   c0.146,0.092,0.262,0.216,0.348,0.372v-0.422h1.398v0.819h-0.246v1.977c0,0.461-0.147,0.809-0.442,1.045   S13.849,58.209,13.279,58.209z M13.361,56.075c0.176,0,0.308-0.057,0.398-0.17c0.09-0.112,0.134-0.267,0.134-0.462v-0.041   c0-0.188-0.043-0.337-0.131-0.45s-0.219-0.17-0.395-0.17c-0.179,0-0.314,0.056-0.403,0.167c-0.09,0.11-0.135,0.264-0.135,0.459   v0.047c0,0.187,0.045,0.338,0.135,0.45C13.053,56.018,13.186,56.075,13.361,56.075z"/>
	<path fill="#000000" d="M15.508,57.075V56.28h0.246v-1.445h-0.251v-0.819h1.404v0.51c0.039-0.078,0.089-0.153,0.149-0.226   s0.13-0.136,0.21-0.19s0.171-0.098,0.275-0.132c0.104-0.032,0.219-0.049,0.348-0.049c0.281,0,0.512,0.092,0.693,0.277   c0.182,0.186,0.272,0.469,0.272,0.852v1.223H19.1v0.795h-1.65V56.28h0.252v-0.976c0-0.306-0.121-0.458-0.363-0.458   c-0.133,0-0.238,0.042-0.316,0.126c-0.078,0.085-0.117,0.217-0.117,0.396v0.911h0.257v0.795H15.508z"/>
	<path fill="#000000" d="M20.117,57.145c-0.09,0-0.173-0.017-0.251-0.05s-0.146-0.078-0.202-0.135s-0.102-0.122-0.134-0.198   c-0.034-0.076-0.05-0.159-0.05-0.249c0-0.085,0.016-0.167,0.05-0.243c0.033-0.075,0.078-0.142,0.134-0.198s0.124-0.102,0.202-0.135   s0.161-0.05,0.251-0.05c0.094,0,0.182,0.017,0.264,0.05s0.151,0.078,0.21,0.135s0.104,0.123,0.138,0.198   c0.033,0.076,0.05,0.158,0.05,0.243c0,0.09-0.017,0.173-0.05,0.249s-0.079,0.142-0.138,0.198s-0.128,0.102-0.21,0.135   S20.211,57.145,20.117,57.145z"/>
	<path fill="#000000" d="M23.137,56.695c-0.07,0.121-0.176,0.228-0.316,0.318c-0.141,0.092-0.336,0.138-0.585,0.138   c-0.137,0-0.268-0.018-0.393-0.053c-0.124-0.035-0.233-0.09-0.327-0.163c-0.094-0.075-0.169-0.17-0.226-0.287   s-0.084-0.258-0.084-0.422c0-0.366,0.14-0.625,0.421-0.777c0.28-0.152,0.687-0.229,1.217-0.229h0.264v-0.047   c0-0.132-0.023-0.239-0.068-0.321c-0.044-0.082-0.141-0.123-0.289-0.123c-0.129,0-0.219,0.034-0.269,0.103   c-0.051,0.068-0.083,0.144-0.095,0.226h-1.07c0.012-0.188,0.055-0.352,0.129-0.492c0.074-0.14,0.177-0.258,0.308-0.354   c0.13-0.096,0.286-0.167,0.468-0.214c0.181-0.047,0.381-0.069,0.6-0.069c0.44,0,0.787,0.093,1.041,0.28   c0.253,0.188,0.38,0.483,0.38,0.89v1.182h0.246v0.795h-1.351V56.695z M22.656,56.39c0.129,0,0.236-0.034,0.322-0.104   c0.085-0.068,0.129-0.164,0.129-0.286v-0.154h-0.252c-0.191,0-0.325,0.023-0.401,0.071c-0.075,0.047-0.113,0.122-0.113,0.225   c0,0.071,0.025,0.13,0.075,0.178C22.467,56.367,22.547,56.39,22.656,56.39z"/>
	<path fill="#000000" d="M24.738,57.075V56.28h0.287v-1.469h-0.292v-0.796h0.292v-0.228c0-0.199,0.03-0.371,0.091-0.515   c0.061-0.145,0.146-0.264,0.258-0.357c0.11-0.094,0.243-0.162,0.397-0.208c0.153-0.044,0.324-0.066,0.512-0.066   c0.102,0,0.19,0.006,0.27,0.018c0.077,0.012,0.153,0.027,0.228,0.047v0.83c-0.039-0.012-0.08-0.021-0.123-0.029   s-0.094-0.012-0.152-0.012c-0.112,0-0.195,0.027-0.248,0.082s-0.079,0.127-0.079,0.217v0.222h0.597v0.796h-0.597v1.469H26.5v0.795   H24.738z"/>
	<path fill="#000000" d="M27.061,57.075V56.28h0.246v-1.445h-0.251v-0.819h1.403v0.649c0.102-0.253,0.233-0.433,0.395-0.538   c0.162-0.105,0.364-0.156,0.606-0.152v1.077c-0.332-0.02-0.582,0.022-0.749,0.125c-0.168,0.104-0.252,0.267-0.252,0.489v0.614   h0.281v0.795H27.061z"/>
	<path fill="#000000" d="M29.769,57.075V56.28h0.246v-1.445h-0.251v-0.819h1.397v2.265h0.252v0.795H29.769z M30.582,53.793   c-0.18,0-0.328-0.056-0.447-0.167s-0.179-0.252-0.179-0.424c0-0.168,0.06-0.307,0.179-0.415c0.119-0.109,0.268-0.164,0.447-0.164   s0.329,0.055,0.448,0.164c0.118,0.108,0.178,0.247,0.178,0.415c0,0.172-0.06,0.312-0.178,0.424   C30.911,53.738,30.762,53.793,30.582,53.793z"/>
	<path fill="#000000" d="M33.981,54.015h0.877v1.211h-1.006C33.825,55.102,33.774,55,33.7,54.922s-0.188-0.117-0.339-0.117   c-0.34,0-0.509,0.238-0.509,0.714v0.053c0,0.245,0.04,0.431,0.122,0.556s0.217,0.187,0.404,0.187c0.132,0,0.239-0.039,0.321-0.117   c0.082-0.077,0.131-0.192,0.146-0.345h1.035c-0.008,0.199-0.046,0.379-0.114,0.538c-0.068,0.16-0.167,0.297-0.298,0.41   S34.177,57,33.983,57.06c-0.192,0.061-0.418,0.091-0.675,0.091c-0.23,0-0.445-0.032-0.644-0.097   c-0.199-0.064-0.372-0.163-0.518-0.295c-0.146-0.133-0.262-0.298-0.346-0.494c-0.084-0.197-0.126-0.431-0.126-0.699v-0.053   c0-0.234,0.034-0.448,0.1-0.644c0.066-0.195,0.16-0.361,0.281-0.5s0.268-0.247,0.441-0.325c0.174-0.077,0.365-0.116,0.576-0.116   c0.133,0,0.249,0.015,0.349,0.044c0.099,0.029,0.186,0.067,0.26,0.116s0.136,0.104,0.185,0.167s0.087,0.129,0.114,0.199V54.015z"/>
	<path fill="#000000" d="M37.134,56.695c-0.07,0.121-0.175,0.228-0.315,0.318c-0.141,0.092-0.336,0.138-0.585,0.138   c-0.137,0-0.268-0.018-0.393-0.053c-0.124-0.035-0.233-0.09-0.327-0.163c-0.094-0.075-0.169-0.17-0.226-0.287   s-0.084-0.258-0.084-0.422c0-0.366,0.14-0.625,0.421-0.777c0.28-0.152,0.686-0.229,1.217-0.229h0.263v-0.047   c0-0.132-0.022-0.239-0.067-0.321c-0.044-0.082-0.142-0.123-0.289-0.123c-0.129,0-0.219,0.034-0.27,0.103s-0.082,0.144-0.094,0.226   h-1.07c0.012-0.188,0.055-0.352,0.129-0.492c0.074-0.14,0.177-0.258,0.307-0.354c0.131-0.096,0.287-0.167,0.469-0.214   c0.181-0.047,0.381-0.069,0.6-0.069c0.44,0,0.787,0.093,1.041,0.28c0.253,0.188,0.38,0.483,0.38,0.89v1.182h0.246v0.795h-1.352   V56.695z M36.654,56.39c0.129,0,0.236-0.034,0.321-0.104c0.086-0.068,0.129-0.164,0.129-0.286v-0.154h-0.251   c-0.191,0-0.325,0.023-0.401,0.071c-0.075,0.047-0.114,0.122-0.114,0.225c0,0.071,0.026,0.13,0.076,0.178   C36.465,56.367,36.545,56.39,36.654,56.39z"/>
</g>
<path fill="#000000" d="M2.875,35.774V2.848h33.504v32.926l-16.752,9.277L2.875,35.774z M1.125,1.098v35.687l18.502,10.264  l18.502-10.264V1.098H1.125z"/>
<g>
	<path fill="#000000" d="M14.895,15.197c0.863,0,1.554-0.697,1.554-1.515c0-0.86-0.691-1.556-1.554-1.556   c-0.864,0-1.554,0.696-1.554,1.556C13.341,14.5,14.031,15.197,14.895,15.197"/>
	<path fill="#000000" d="M14.037,28.388h-1.989v1.75h0.035h5.706h0.035v-1.75h-1.932v-6.535c1.591-2.022,3.123-2.774,4.512-2.774   c2.036,0,2.961,1.274,2.961,3.219v6.09H21.43v1.75h0.035h5.671h0.035v-1.75h-1.952v-6.125c0-2.842-1.58-5.004-4.658-5.004   c-0.02,0-0.038,0.001-0.057,0.001c-0.017,0-0.032-0.001-0.048-0.001c-1.932,0-3.473,1.158-4.564,2.282v-2.024h-0.07h-3.739h-0.034   v1.715h1.989V28.388z"/>
</g>
</svg>